<svg xmlns="http://www.w3.org/2000/svg" width="110" height="109" fill="none"><path fill="#fff" fill-rule="evenodd" d="M26.264 19.468c-.99.522-2.128.784-3.416.784-1.288 0-2.422-.262-3.402-.784a5.603 5.603 0 0 1-2.282-2.212c-.541-.952-.812-2.063-.812-3.332V6.476c0-1.25.27-2.352.812-3.304A5.603 5.603 0 0 1 19.446.96c.98-.523 2.114-.784 3.402-.784 1.288 0 2.427.261 3.416.784a5.581 5.581 0 0 1 2.296 2.212c.541.952.812 2.053.812 3.304v7.448c0 1.27-.27 2.38-.812 3.332a5.582 5.582 0 0 1-2.296 2.212ZM5.096 20a.324.324 0 0 0 .238-.098.324.324 0 0 0 .098-.238V12.02c0-.094.047-.14.14-.14h1.764c.056 0 .103.037.14.112l2.828 7.728c.056.186.187.28.392.28h3.416c.205 0 .308-.084.308-.252a.312.312 0 0 0-.028-.14L11.2 11.572c-.037-.094-.01-.159.084-.196a4.812 4.812 0 0 0 2.212-1.96c.523-.878.784-1.914.784-3.108 0-1.158-.233-2.184-.7-3.08a5.042 5.042 0 0 0-1.988-2.086C10.733.647 9.753.4 8.652.4H1.82a.324.324 0 0 0-.238.098.324.324 0 0 0-.098.238v18.928c0 .093.033.172.098.238A.324.324 0 0 0 1.82 20h3.276ZM8.008 8.856H5.572c-.093 0-.14-.047-.14-.14V3.928c0-.094.047-.14.14-.14h2.436c.69 0 1.25.228 1.68.686.43.457.644 1.078.644 1.862 0 .765-.215 1.376-.644 1.834-.43.457-.99.686-1.68.686Zm14.84 8.008c-.765 0-1.381-.257-1.848-.77-.467-.514-.7-1.18-.7-2.002V6.364c0-.84.233-1.517.7-2.03.467-.514 1.083-.77 1.848-.77.784 0 1.41.256 1.876.77.467.513.7 1.19.7 2.03v7.728c0 .821-.233 1.488-.7 2.002-.467.513-1.092.77-1.876.77Zm20.846.504a5.364 5.364 0 0 1-2.254 2.114c-.97.494-2.09.742-3.36.742s-2.39-.252-3.36-.756a5.401 5.401 0 0 1-2.254-2.156c-.532-.934-.798-2.016-.798-3.248V6.28c0-1.214.266-2.282.798-3.206A5.426 5.426 0 0 1 34.72.932c.97-.504 2.09-.756 3.36-.756s2.39.247 3.36.742c.97.494 1.722 1.19 2.254 2.086.532.896.798 1.941.798 3.136v.14a.373.373 0 0 1-.098.252.305.305 0 0 1-.238.112l-3.276.14c-.224 0-.336-.103-.336-.308v-.364c0-.766-.224-1.382-.672-1.848-.448-.467-1.045-.7-1.792-.7-.747 0-1.344.233-1.792.7-.448.466-.672 1.082-.672 1.848v8.204c0 .765.224 1.376.672 1.834.448.457 1.045.686 1.792.686.747 0 1.344-.229 1.792-.686.448-.458.672-1.069.672-1.834v-.364c0-.206.112-.308.336-.308l3.276.14c.093 0 .173.032.238.098a.324.324 0 0 1 .098.238v.084c0 1.194-.266 2.25-.798 3.164ZM50.624 20a.324.324 0 0 0 .238-.098.324.324 0 0 0 .098-.238v-5.6c0-.038.019-.094.056-.168l1.26-1.82c.037-.056.075-.084.112-.084.037 0 .065.028.084.084l3.976 7.672c.093.168.224.252.392.252h3.584c.205 0 .308-.075.308-.224a.429.429 0 0 0-.056-.168L55.188 9.024a.348.348 0 0 1 0-.196l5.18-8.036c.075-.112.089-.206.042-.28C60.363.437 60.275.4 60.144.4h-3.612a.439.439 0 0 0-.392.224L51.128 8.24c-.019.056-.051.074-.098.056-.047-.019-.07-.056-.07-.112V.736a.324.324 0 0 0-.098-.238.324.324 0 0 0-.238-.098h-3.276a.324.324 0 0 0-.238.098.324.324 0 0 0-.098.238v18.928c0 .093.033.172.098.238a.324.324 0 0 0 .238.098h3.276ZM5.25 41.902a.324.324 0 0 1-.238.098H1.736a.324.324 0 0 1-.238-.098.324.324 0 0 1-.098-.238V22.708c0-.094.033-.173.098-.238a.324.324 0 0 1 .238-.098h6.776c1.12 0 2.114.252 2.982.756a5.157 5.157 0 0 1 2.016 2.128c.476.914.714 1.96.714 3.136 0 1.157-.238 2.18-.714 3.066a5.038 5.038 0 0 1-2.016 2.058c-.868.485-1.862.728-2.982.728H5.488c-.093 0-.14.046-.14.14v7.28a.324.324 0 0 1-.098.238Zm2.618-10.794h-2.38c-.093 0-.14-.047-.14-.14v-5.04c0-.094.047-.14.14-.14h2.38c.728 0 1.311.242 1.75.728.439.485.658 1.138.658 1.96 0 .802-.22 1.442-.658 1.918-.439.476-1.022.714-1.75.714ZM19.516 41.72c-.056.186-.177.28-.364.28h-3.388c-.243 0-.336-.122-.28-.364l5.04-18.956c.056-.187.187-.28.392-.28h4.06c.205 0 .336.093.392.28l5.04 18.956.028.112c0 .168-.103.252-.308.252h-3.416c-.205 0-.336-.094-.392-.28l-.644-2.744c-.019-.075-.065-.112-.14-.112H20.3c-.075 0-.121.037-.14.112l-.644 2.744Zm5.236-5.908h-3.696a.186.186 0 0 1-.112-.042c-.037-.028-.047-.07-.028-.126l1.876-8.12c.019-.075.047-.112.084-.112.037 0 .065.037.084.112l1.932 8.12c.019.056.01.098-.028.126a.186.186 0 0 1-.112.042Zm11.522 6.09a.324.324 0 0 1-.238.098H32.76a.324.324 0 0 1-.238-.098.324.324 0 0 1-.098-.238V22.708c0-.094.033-.173.098-.238a.324.324 0 0 1 .238-.098h6.776c1.12 0 2.114.252 2.982.756a5.159 5.159 0 0 1 2.016 2.128c.476.914.714 1.96.714 3.136 0 1.157-.238 2.18-.714 3.066a5.04 5.04 0 0 1-2.016 2.058c-.868.485-1.862.728-2.982.728h-3.024c-.093 0-.14.046-.14.14v7.28a.324.324 0 0 1-.098.238Zm2.618-10.794h-2.38c-.093 0-.14-.047-.14-.14v-5.04c0-.094.047-.14.14-.14h2.38c.728 0 1.311.242 1.75.728.439.485.658 1.138.658 1.96 0 .802-.22 1.442-.658 1.918-.439.476-1.022.714-1.75.714Zm20.314 10.794a.324.324 0 0 1-.238.098H47.712a.324.324 0 0 1-.238-.098.324.324 0 0 1-.098-.238V22.736c0-.094.033-.173.098-.238a.324.324 0 0 1 .238-.098h11.256c.093 0 .173.032.238.098a.324.324 0 0 1 .098.238v2.716a.324.324 0 0 1-.098.238.324.324 0 0 1-.238.098h-7.504c-.093 0-.14.046-.14.14v4.368c0 .093.047.14.14.14h4.676c.093 0 .173.032.238.098a.324.324 0 0 1 .098.238v2.716a.324.324 0 0 1-.098.238.324.324 0 0 1-.238.098h-4.676c-.093 0-.14.046-.14.14v4.508c0 .093.047.14.14.14h7.504c.093 0 .173.032.238.098a.324.324 0 0 1 .098.238v2.716a.324.324 0 0 1-.098.238Zm6.09.098a.324.324 0 0 0 .238-.098.324.324 0 0 0 .098-.238V34.02c0-.094.047-.14.14-.14h1.764c.056 0 .103.037.14.112l2.828 7.728c.056.186.187.28.392.28h3.416c.205 0 .308-.084.308-.252a.311.311 0 0 0-.028-.14L71.4 33.572c-.037-.094-.01-.159.084-.196a4.812 4.812 0 0 0 2.212-1.96c.523-.878.784-1.914.784-3.108 0-1.158-.233-2.184-.7-3.08a5.04 5.04 0 0 0-1.988-2.086c-.859-.495-1.839-.742-2.94-.742H62.02a.324.324 0 0 0-.238.098.324.324 0 0 0-.098.238v18.928c0 .093.033.172.098.238a.324.324 0 0 0 .238.098h3.276Zm.476-11.144h2.436c.69 0 1.25-.229 1.68-.686.43-.458.644-1.069.644-1.834 0-.784-.215-1.405-.644-1.862-.43-.458-.99-.686-1.68-.686h-2.436c-.093 0-.14.046-.14.14v4.788c0 .093.047.14.14.14ZM7.364 64.224c1.904 0 3.43-.5 4.578-1.498 1.148-.999 1.722-2.348 1.722-4.046 0-.952-.205-1.764-.616-2.436a5.685 5.685 0 0 0-1.526-1.666c-.607-.439-1.451-.957-2.534-1.554l-.588-.336c-.952-.467-1.661-.845-2.128-1.134-.467-.29-.812-.593-1.036-.91a1.892 1.892 0 0 1-.336-1.12c0-.616.191-1.097.574-1.442.383-.346.91-.518 1.582-.518.803 0 1.437.224 1.904.672.467.448.7 1.008.7 1.68v.504c0 .093.033.172.098.238a.324.324 0 0 0 .238.098h3.22a.324.324 0 0 0 .238-.098.324.324 0 0 0 .098-.238v-.56c0-1.12-.27-2.11-.812-2.968-.541-.859-1.297-1.526-2.268-2.002-.97-.476-2.081-.714-3.332-.714-1.195 0-2.259.22-3.192.658-.933.438-1.657 1.064-2.17 1.876-.513.812-.77 1.76-.77 2.842s.252 2.006.756 2.772a6.716 6.716 0 0 0 1.82 1.876c.71.485 1.624 1.008 2.744 1.568.915.466 1.591.835 2.03 1.106.439.27.78.56 1.022.868.243.308.364.676.364 1.106 0 .578-.191 1.054-.574 1.428-.383.373-.938.56-1.666.56-.821 0-1.475-.22-1.96-.658a2.118 2.118 0 0 1-.728-1.638v-.532a.324.324 0 0 0-.098-.238.324.324 0 0 0-.238-.098H1.26a.324.324 0 0 0-.238.098.324.324 0 0 0-.098.238v.728c0 1.082.266 2.04.798 2.87.532.83 1.283 1.474 2.254 1.932.97.457 2.1.686 3.388.686Zm20.37-2.856a5.363 5.363 0 0 1-2.254 2.114c-.97.494-2.09.742-3.36.742s-2.39-.252-3.36-.756a5.401 5.401 0 0 1-2.254-2.156c-.532-.934-.798-2.016-.798-3.248V50.28c0-1.214.266-2.282.798-3.206a5.426 5.426 0 0 1 2.254-2.142c.97-.504 2.09-.756 3.36-.756s2.39.247 3.36.742c.97.494 1.722 1.19 2.254 2.086.532.896.798 1.941.798 3.136v.14a.373.373 0 0 1-.098.252.305.305 0 0 1-.238.112l-3.276.14c-.224 0-.336-.103-.336-.308v-.364c0-.766-.224-1.382-.672-1.848-.448-.467-1.045-.7-1.792-.7-.747 0-1.344.233-1.792.7-.448.466-.672 1.082-.672 1.848v8.204c0 .765.224 1.376.672 1.834.448.457 1.045.686 1.792.686.747 0 1.344-.229 1.792-.686.448-.458.672-1.069.672-1.834v-.364c0-.206.112-.308.336-.308l3.276.14c.093 0 .173.032.238.098a.324.324 0 0 1 .098.238v.084c0 1.194-.266 2.25-.798 3.164ZM34.664 64a.324.324 0 0 0 .238-.098.324.324 0 0 0 .098-.238V44.736a.324.324 0 0 0-.098-.238.324.324 0 0 0-.238-.098h-3.276a.324.324 0 0 0-.238.098.324.324 0 0 0-.098.238v18.928c0 .093.033.172.098.238a.324.324 0 0 0 .238.098h3.276Zm13.734-1.274c-1.148.998-2.674 1.498-4.578 1.498-1.288 0-2.417-.229-3.388-.686-.97-.458-1.722-1.102-2.254-1.932-.532-.83-.798-1.788-.798-2.87v-.728c0-.094.033-.173.098-.238a.324.324 0 0 1 .238-.098h3.22c.093 0 .173.032.238.098a.324.324 0 0 1 .098.238v.532c0 .653.243 1.2.728 1.638.485.438 1.139.658 1.96.658.728 0 1.283-.187 1.666-.56.383-.374.574-.85.574-1.428 0-.43-.121-.798-.364-1.106-.243-.308-.583-.598-1.022-.868-.439-.27-1.115-.64-2.03-1.106-1.12-.56-2.035-1.083-2.744-1.568a6.715 6.715 0 0 1-1.82-1.876c-.504-.766-.756-1.69-.756-2.772 0-1.083.257-2.03.77-2.842.513-.812 1.237-1.438 2.17-1.876.933-.439 1.997-.658 3.192-.658 1.25 0 2.361.238 3.332.714.97.476 1.727 1.143 2.268 2.002.541.858.812 1.848.812 2.968v.56a.324.324 0 0 1-.098.238.324.324 0 0 1-.238.098h-3.22a.324.324 0 0 1-.238-.098.324.324 0 0 1-.098-.238v-.504c0-.672-.233-1.232-.7-1.68-.467-.448-1.101-.672-1.904-.672-.672 0-1.2.172-1.582.518-.383.345-.574.826-.574 1.442 0 .43.112.802.336 1.12.224.317.57.62 1.036.91.467.29 1.176.667 2.128 1.134l.588.336c1.083.597 1.927 1.115 2.534 1.554a5.687 5.687 0 0 1 1.526 1.666c.41.672.616 1.484.616 2.436 0 1.698-.574 3.047-1.722 4.046Zm9.982 1.498c1.904 0 3.43-.5 4.578-1.498 1.148-.999 1.722-2.348 1.722-4.046 0-.952-.205-1.764-.616-2.436a5.685 5.685 0 0 0-1.526-1.666c-.607-.439-1.451-.957-2.534-1.554l-.588-.336c-.952-.467-1.661-.845-2.128-1.134-.467-.29-.812-.593-1.036-.91a1.893 1.893 0 0 1-.336-1.12c0-.616.191-1.097.574-1.442.383-.346.91-.518 1.582-.518.803 0 1.437.224 1.904.672.467.448.7 1.008.7 1.68v.504c0 .093.033.172.098.238a.324.324 0 0 0 .238.098h3.22a.324.324 0 0 0 .238-.098.324.324 0 0 0 .098-.238v-.56c0-1.12-.27-2.11-.812-2.968-.541-.859-1.297-1.526-2.268-2.002-.97-.476-2.081-.714-3.332-.714-1.195 0-2.259.22-3.192.658-.933.438-1.657 1.064-2.17 1.876-.513.812-.77 1.76-.77 2.842s.252 2.006.756 2.772A6.718 6.718 0 0 0 54.6 54.2c.71.485 1.624 1.008 2.744 1.568.915.466 1.591.835 2.03 1.106.439.27.78.56 1.022.868.243.308.364.676.364 1.106 0 .578-.191 1.054-.574 1.428-.383.373-.938.56-1.666.56-.821 0-1.475-.22-1.96-.658a2.118 2.118 0 0 1-.728-1.638v-.532a.324.324 0 0 0-.098-.238.324.324 0 0 0-.238-.098h-3.22a.324.324 0 0 0-.238.098.324.324 0 0 0-.098.238v.728c0 1.082.266 2.04.798 2.87.532.83 1.283 1.474 2.254 1.932.97.457 2.1.686 3.388.686Zm18.256-.756c-.99.522-2.128.784-3.416.784-1.288 0-2.422-.262-3.402-.784a5.603 5.603 0 0 1-2.282-2.212c-.541-.952-.812-2.063-.812-3.332v-7.448c0-1.25.27-2.352.812-3.304a5.602 5.602 0 0 1 2.282-2.212c.98-.523 2.114-.784 3.402-.784 1.288 0 2.427.261 3.416.784a5.58 5.58 0 0 1 2.296 2.212c.541.952.812 2.053.812 3.304v7.448c0 1.27-.27 2.38-.812 3.332a5.582 5.582 0 0 1-2.296 2.212Zm-3.416-2.604c-.765 0-1.381-.257-1.848-.77-.467-.514-.7-1.18-.7-2.002v-7.728c0-.84.233-1.517.7-2.03.467-.514 1.083-.77 1.848-.77.784 0 1.41.256 1.876.77.467.513.7 1.19.7 2.03v7.728c0 .821-.233 1.488-.7 2.002-.467.513-1.092.77-1.876.77Zm13.006 3.038a.324.324 0 0 1-.238.098h-3.276a.324.324 0 0 1-.238-.098.324.324 0 0 1-.098-.238V44.736c0-.094.033-.173.098-.238a.324.324 0 0 1 .238-.098h6.832c1.101 0 2.081.247 2.94.742a5.042 5.042 0 0 1 1.988 2.086c.467.896.7 1.922.7 3.08 0 1.194-.261 2.23-.784 3.108a4.813 4.813 0 0 1-2.212 1.96c-.093.037-.121.102-.084.196l3.192 8.036a.312.312 0 0 1 .028.14c0 .168-.103.252-.308.252h-3.416c-.205 0-.336-.094-.392-.28l-2.828-7.728c-.037-.075-.084-.112-.14-.112h-1.764c-.093 0-.14.046-.14.14v7.644a.324.324 0 0 1-.098.238ZM88.9 52.856h-2.436c-.093 0-.14-.047-.14-.14v-4.788c0-.094.047-.14.14-.14H88.9c.69 0 1.25.228 1.68.686.43.457.644 1.078.644 1.862 0 .765-.215 1.376-.644 1.834-.43.457-.99.686-1.68.686Zm19.138 9.87c-1.148.998-2.674 1.498-4.578 1.498-1.288 0-2.417-.229-3.388-.686-.97-.458-1.722-1.102-2.254-1.932-.532-.83-.798-1.788-.798-2.87v-.728c0-.094.033-.173.098-.238a.324.324 0 0 1 .238-.098h3.22c.093 0 .173.032.238.098a.325.325 0 0 1 .098.238v.532c0 .653.243 1.2.728 1.638.485.438 1.139.658 1.96.658.728 0 1.283-.187 1.666-.56.383-.374.574-.85.574-1.428 0-.43-.121-.798-.364-1.106-.243-.308-.583-.598-1.022-.868-.439-.27-1.115-.64-2.03-1.106-1.12-.56-2.035-1.083-2.744-1.568a6.716 6.716 0 0 1-1.82-1.876c-.504-.766-.756-1.69-.756-2.772 0-1.083.257-2.03.77-2.842.513-.812 1.237-1.438 2.17-1.876.933-.439 1.997-.658 3.192-.658 1.251 0 2.361.238 3.332.714.971.476 1.727 1.143 2.268 2.002.541.858.812 1.848.812 2.968v.56a.325.325 0 0 1-.098.238.324.324 0 0 1-.238.098h-3.22a.324.324 0 0 1-.238-.098.325.325 0 0 1-.098-.238v-.504c0-.672-.233-1.232-.7-1.68-.467-.448-1.101-.672-1.904-.672-.672 0-1.199.172-1.582.518-.383.345-.574.826-.574 1.442 0 .43.112.802.336 1.12.224.317.569.62 1.036.91.467.29 1.176.667 2.128 1.134l.588.336c1.083.597 1.927 1.115 2.534 1.554a5.686 5.686 0 0 1 1.526 1.666c.411.672.616 1.484.616 2.436 0 1.698-.574 3.047-1.722 4.046ZM13.076 86a.324.324 0 0 0 .238-.098.324.324 0 0 0 .098-.238v-2.716a.324.324 0 0 0-.098-.238.324.324 0 0 0-.238-.098H5.572c-.093 0-.14-.047-.14-.14V66.736a.324.324 0 0 0-.098-.238.324.324 0 0 0-.238-.098H1.82a.324.324 0 0 0-.238.098.324.324 0 0 0-.098.238v18.928c0 .093.033.172.098.238A.324.324 0 0 0 1.82 86h11.256Zm6.23-.098a.324.324 0 0 1-.238.098h-3.276a.324.324 0 0 1-.238-.098.324.324 0 0 1-.098-.238V66.736c0-.094.033-.173.098-.238a.324.324 0 0 1 .238-.098h3.276c.093 0 .173.032.238.098a.324.324 0 0 1 .098.238v18.928a.324.324 0 0 1-.098.238Zm13.93.098a.324.324 0 0 0 .238-.098.324.324 0 0 0 .098-.238v-2.716a.324.324 0 0 0-.098-.238.324.324 0 0 0-.238-.098H26.04c-.112 0-.14-.056-.084-.168l7.504-12.348a.833.833 0 0 0 .112-.42v-2.94a.324.324 0 0 0-.098-.238.324.324 0 0 0-.238-.098H21.924a.324.324 0 0 0-.238.098.324.324 0 0 0-.098.238v2.716c0 .093.033.172.098.238a.324.324 0 0 0 .238.098h7.196c.112 0 .14.056.084.168L21.7 82.304a.833.833 0 0 0-.112.42v2.94c0 .093.033.172.098.238a.324.324 0 0 0 .238.098h11.312Zm5.852-.28c-.056.186-.177.28-.364.28h-3.388c-.243 0-.336-.122-.28-.364l5.04-18.956c.056-.187.187-.28.392-.28h4.06c.205 0 .336.093.392.28l5.04 18.956.028.112c0 .168-.103.252-.308.252h-3.416c-.205 0-.336-.094-.392-.28l-.644-2.744c-.019-.075-.065-.112-.14-.112h-5.236c-.075 0-.121.037-.14.112l-.644 2.744Zm5.236-5.908h-3.696a.186.186 0 0 1-.112-.042c-.037-.028-.047-.07-.028-.126l1.876-8.12c.019-.075.047-.112.084-.112.037 0 .065.037.084.112l1.932 8.12c.019.056.01.098-.028.126a.186.186 0 0 1-.112.042Zm11.606 6.09a.324.324 0 0 1-.238.098h-3.276a.324.324 0 0 1-.238-.098.324.324 0 0 1-.098-.238V66.736c0-.094.033-.173.098-.238a.324.324 0 0 1 .238-.098h6.832c1.101 0 2.081.247 2.94.742a5.041 5.041 0 0 1 1.988 2.086c.467.896.7 1.922.7 3.08 0 1.194-.261 2.23-.784 3.108a4.812 4.812 0 0 1-2.212 1.96c-.093.037-.121.102-.084.196l3.192 8.036a.311.311 0 0 1 .028.14c0 .168-.103.252-.308.252h-3.416c-.205 0-.336-.094-.392-.28l-2.828-7.728c-.037-.075-.084-.112-.14-.112h-1.764c-.093 0-.14.046-.14.14v7.644a.324.324 0 0 1-.098.238Zm2.674-11.046h-2.436c-.093 0-.14-.047-.14-.14v-4.788c0-.094.047-.14.14-.14h2.436c.69 0 1.25.228 1.68.686.43.457.644 1.078.644 1.862 0 .765-.215 1.376-.644 1.834-.43.457-.99.686-1.68.686ZM76.958 85.3c-.961.466-2.067.7-3.318.7h-6.02a.324.324 0 0 1-.238-.098.324.324 0 0 1-.098-.238V66.736c0-.094.033-.173.098-.238a.324.324 0 0 1 .238-.098h6.02c1.25 0 2.357.233 3.318.7.961.466 1.703 1.13 2.226 1.988.523.858.784 1.857.784 2.996v8.232c0 1.138-.261 2.137-.784 2.996-.523.858-1.265 1.521-2.226 1.988Zm-5.586-2.688c-.093 0-.14-.047-.14-.14V69.928c0-.094.047-.14.14-.14h2.296c.71 0 1.279.247 1.708.742.43.494.644 1.162.644 2.002v7.336c-.019.821-.243 1.48-.672 1.974-.43.494-.99.742-1.68.742l-2.296.028Zm-59.43 24.114c-1.148.998-2.674 1.498-4.578 1.498-1.288 0-2.417-.229-3.388-.686-.97-.458-1.722-1.102-2.254-1.932-.532-.831-.798-1.788-.798-2.87v-.728c0-.094.033-.173.098-.238a.321.321 0 0 1 .238-.098h3.22c.093 0 .173.032.238.098a.322.322 0 0 1 .098.238v.532c0 .653.243 1.199.728 1.638.485.438 1.139.658 1.96.658.728 0 1.283-.187 1.666-.56.383-.374.574-.85.574-1.428 0-.43-.121-.798-.364-1.106-.243-.308-.583-.598-1.022-.868-.439-.271-1.115-.64-2.03-1.106-1.12-.56-2.035-1.083-2.744-1.568a6.716 6.716 0 0 1-1.82-1.876c-.504-.766-.756-1.69-.756-2.772 0-1.083.257-2.03.77-2.842.513-.812 1.237-1.438 2.17-1.876.933-.439 1.997-.658 3.192-.658 1.25 0 2.361.238 3.332.714.97.476 1.727 1.143 2.268 2.002.541.859.812 1.848.812 2.968v.56a.324.324 0 0 1-.098.238.324.324 0 0 1-.238.098h-3.22a.324.324 0 0 1-.238-.098.324.324 0 0 1-.098-.238v-.504c0-.672-.233-1.232-.7-1.68-.467-.448-1.101-.672-1.904-.672-.672 0-1.2.173-1.582.518-.383.345-.574.826-.574 1.442 0 .43.112.802.336 1.12.224.317.57.62 1.036.91.467.29 1.176.667 2.128 1.134l.588.336c1.083.597 1.927 1.115 2.534 1.554a5.683 5.683 0 0 1 1.526 1.666c.41.672.616 1.484.616 2.436 0 1.698-.574 3.047-1.722 4.046Zm7.63 1.274a.325.325 0 0 0 .238-.098.325.325 0 0 0 .098-.238v-7.28c0-.094.047-.14.14-.14h3.024c1.12 0 2.114-.243 2.982-.728a5.04 5.04 0 0 0 2.016-2.058c.476-.887.714-1.909.714-3.066 0-1.176-.238-2.222-.714-3.136a5.158 5.158 0 0 0-2.016-2.128c-.868-.504-1.862-.756-2.982-.756h-6.776a.324.324 0 0 0-.238.098.324.324 0 0 0-.098.238v18.956c0 .093.033.172.098.238a.325.325 0 0 0 .238.098h3.276Zm.476-10.892h2.38c.728 0 1.311-.238 1.75-.714.439-.476.658-1.116.658-1.918 0-.822-.22-1.475-.658-1.96-.439-.486-1.022-.728-1.75-.728h-2.38c-.093 0-.14.046-.14.14v5.04c0 .093.047.14.14.14Zm17.024 11.144c1.288 0 2.427-.262 3.416-.784a5.583 5.583 0 0 0 2.296-2.212c.541-.952.812-2.063.812-3.332v-7.448c0-1.25-.27-2.352-.812-3.304a5.58 5.58 0 0 0-2.296-2.212c-.99-.523-2.128-.784-3.416-.784-1.288 0-2.422.261-3.402.784a5.601 5.601 0 0 0-2.282 2.212c-.541.952-.812 2.053-.812 3.304v7.448c0 1.269.27 2.38.812 3.332a5.604 5.604 0 0 0 2.282 2.212c.98.522 2.114.784 3.402.784Zm-1.848-4.158c.467.513 1.083.77 1.848.77.784 0 1.41-.257 1.876-.77.467-.514.7-1.181.7-2.002v-7.728c0-.84-.233-1.517-.7-2.03-.467-.514-1.092-.77-1.876-.77-.765 0-1.381.256-1.848.77-.467.513-.7 1.19-.7 2.03v7.728c0 .821.233 1.488.7 2.002Zm20.44 3.388a5.368 5.368 0 0 0 2.254-2.114c.532-.915.798-1.97.798-3.164v-.084a.323.323 0 0 0-.098-.238.322.322 0 0 0-.238-.098l-3.276-.14c-.224 0-.336.102-.336.308v.364c0 .765-.224 1.376-.672 1.834-.448.457-1.045.686-1.792.686-.747 0-1.344-.229-1.792-.686-.448-.458-.672-1.069-.672-1.834v-8.204c0-.765.224-1.382.672-1.848.448-.467 1.045-.7 1.792-.7.747 0 1.344.233 1.792.7.448.466.672 1.083.672 1.848v.364c0 .205.112.308.336.308l3.276-.14a.305.305 0 0 0 .238-.112.373.373 0 0 0 .098-.252v-.14c0-1.195-.266-2.24-.798-3.136-.532-.896-1.283-1.592-2.254-2.086-.97-.495-2.09-.742-3.36-.742s-2.39.252-3.36.756a5.427 5.427 0 0 0-2.254 2.142c-.532.924-.798 1.992-.798 3.206v7.784c0 1.232.266 2.314.798 3.248a5.404 5.404 0 0 0 2.254 2.156c.97.504 2.09.756 3.36.756s2.39-.248 3.36-.742Zm9.422.42a.326.326 0 0 1-.238.098h-3.276a.325.325 0 0 1-.238-.098.325.325 0 0 1-.098-.238V88.736c0-.094.033-.173.098-.238a.324.324 0 0 1 .238-.098h3.276c.093 0 .173.032.238.098a.324.324 0 0 1 .098.238v7.448c0 .056.023.093.07.112.047.018.08 0 .098-.056l5.012-7.616a.439.439 0 0 1 .392-.224h3.612c.13 0 .22.037.266.112.047.074.033.168-.042.28l-5.18 8.036a.35.35 0 0 0 0 .196l5.488 10.584c.037.074.056.13.056.168 0 .149-.103.224-.308.224h-3.584c-.168 0-.299-.084-.392-.252l-3.976-7.672c-.019-.056-.047-.084-.084-.084-.037 0-.075.028-.112.084l-1.26 1.82a.422.422 0 0 0-.056.168v5.6a.326.326 0 0 1-.098.238Z" clip-rule="evenodd"/></svg>